<svg width="267" height="60" viewBox="0 0 267 60" fill="none" xmlns="http://www.w3.org/2000/svg">
<path d="M0 1.5H267V0.5H0V1.5Z" fill="#DFAD2C"/>
<path fill-rule="evenodd" clip-rule="evenodd" d="M183.905 39.5083C183.088 39.5083 182.467 39.041 182.018 38.0814L175.108 20.181H174.655L168.284 38.1456C168.106 38.5288 167.829 38.8582 167.483 39.1006C167.137 39.343 166.733 39.4897 166.311 39.5261V39.8079H170.492V39.5261L170.157 39.4976C169.952 39.4968 169.75 39.451 169.565 39.3635C169.38 39.276 169.217 39.1488 169.087 38.991C168.981 38.806 168.915 38.6009 168.894 38.3889C168.872 38.1769 168.895 37.9628 168.962 37.7603L170.624 32.9374H178.155L180.042 37.9316C180.118 38.1017 180.152 38.2875 180.142 38.4735C180.132 38.6596 180.078 38.8406 179.985 39.0017C179.886 39.1498 179.753 39.271 179.596 39.3545C179.439 39.4379 179.263 39.481 179.086 39.4797L178.633 39.5083L178.69 39.7901H183.905V39.5083ZM177.983 32.4987H170.767L174.263 22.489L177.983 32.4987Z" fill="#DFAD2C"/>
<path fill-rule="evenodd" clip-rule="evenodd" d="M46.2491 21.2905C44.9576 20.7348 43.5671 20.446 42.1611 20.4415H42.1325C40.7219 20.4487 39.3275 20.7423 38.0338 21.3048C36.8624 21.7807 35.8119 22.5119 34.9588 23.4451C34.1628 24.3586 33.5413 25.4106 33.1253 26.5486C32.2596 28.9253 32.2596 31.5311 33.1253 33.9078C33.5501 35.0416 34.1707 36.0921 34.9588 37.0113C35.8206 37.9429 36.8731 38.6778 38.0445 39.1659C39.3394 39.7042 40.7303 39.9737 42.1325 39.9578H42.1611C43.5634 39.9737 44.9542 39.7042 46.2491 39.1659C47.412 38.6763 48.4523 37.9356 49.2955 36.997C50.0974 36.0832 50.727 35.0318 51.1541 33.8935C52.0197 31.5168 52.0197 28.911 51.1541 26.5343C50.7361 25.3917 50.1055 24.3387 49.2955 23.4308C48.4567 22.4942 47.4146 21.7621 46.2491 21.2905ZM49.8592 30.1979C49.8592 32.664 49.2385 34.7508 47.9971 36.4584V36.4726C47.3597 37.4299 46.4902 38.2101 45.4696 38.7404C44.4491 39.2706 43.3108 39.5336 42.1611 39.5048H42.1325C41.4937 39.5069 40.8576 39.4216 40.2419 39.2515H40.1848C39.1559 39.0253 38.1799 38.6039 37.3097 38.0101C36.4735 37.418 35.7489 36.6825 35.1693 35.8377C35.0766 35.6878 35.1051 35.5773 35.2549 35.5023L35.4226 35.4453C35.4519 35.4341 35.4781 35.4162 35.4992 35.393C35.5203 35.3698 35.5356 35.342 35.5439 35.3118C35.5523 35.2815 35.5534 35.2498 35.5472 35.2191C35.541 35.1884 35.5276 35.1595 35.5082 35.1349C34.782 33.5916 34.416 31.9034 34.438 30.1979C34.438 27.7531 35.0587 25.6675 36.3001 23.9409C36.9406 22.9877 37.8112 22.2114 38.8313 21.6839C39.8514 21.1564 40.988 20.8947 42.1361 20.9231H42.1646C42.8005 20.9205 43.4343 20.996 44.0517 21.1478C44.0627 21.1485 44.0733 21.1514 44.0831 21.1563C44.0929 21.1612 44.1017 21.168 44.1088 21.1763C46.1661 21.6067 47.97 22.8325 49.1279 24.5866C49.2242 24.7186 49.1957 24.8221 49.0458 24.897L48.8746 24.9826C48.7438 25.0397 48.7153 25.1431 48.789 25.2929C49.5183 26.8238 49.8845 28.5023 49.8592 30.1979Z" fill="#DFAD2C"/>
<path d="M28.8965 36.4297C28.827 36.402 28.7464 36.3699 28.6484 36.3334L28.1811 37.2645C27.8565 37.861 27.3912 38.3691 26.8256 38.7449C26.2987 39.1026 25.6787 39.2985 25.042 39.3085H15.3676C16.2689 39.3085 16.9087 39.0267 17.2868 38.4631L28.8482 20.6269H16.3771L16.3486 20.8231H16.2915C16.2403 21.0892 16.1748 21.3524 16.0953 21.6115C16.0204 21.9325 15.9384 22.2607 15.8421 22.5996L15.8329 22.6317C15.741 22.9551 15.669 23.2085 15.6138 23.3915H15.8421L16.2915 22.8529C16.7452 22.3276 17.2902 21.8888 17.9004 21.558C18.4391 21.2289 19.0532 21.0434 19.684 21.0193H27.9457C27.0253 21.0193 26.3761 21.3118 25.998 21.8969L14.4937 39.7936H28.4701C28.4731 39.755 28.476 39.7159 28.4789 39.6759C28.4929 39.4832 28.5084 39.2712 28.5557 39.0053C28.6127 38.6842 28.6663 38.3953 28.7233 38.1313L28.7537 37.9923C28.8015 37.7741 28.8504 37.5506 28.8946 37.2859C28.9481 36.9648 28.9873 36.7009 29.0051 36.494V36.4726C28.9719 36.4598 28.9356 36.4453 28.8965 36.4297Z" fill="#DFAD2C"/>
<path d="M68.4908 36.3905C68.5978 36.4255 68.7007 36.4721 68.7976 36.5296C68.687 37.3393 68.5158 38.3738 68.291 39.6331L68.2625 39.8007H56.0055V39.5189L56.2302 39.4904C56.4631 39.4762 56.6876 39.3985 56.8795 39.2656C57.0766 39.1059 57.2349 38.9034 57.3424 38.6735C57.4499 38.4437 57.5039 38.1924 57.5002 37.9386V22.489C57.5163 22.1006 57.3894 21.7198 57.1434 21.4188C57.0401 21.2749 56.9048 21.1569 56.7482 21.074C56.5917 20.991 56.418 20.9455 56.2409 20.9408L56.0162 20.9122V20.6019H60.782V20.9122L60.7535 20.9408L60.5252 20.9693C60.3903 20.9711 60.2571 20.999 60.1328 21.0514C60.0034 21.1098 59.8833 21.1867 59.7761 21.2797C59.6777 21.3802 59.5926 21.4929 59.5228 21.615C59.4386 21.747 59.3726 21.8898 59.3266 22.0395C59.2872 22.1957 59.268 22.3564 59.2695 22.5175V38.3667C59.2621 38.6144 59.1731 38.8527 59.0162 39.0445C58.898 39.1891 58.7408 39.2968 58.5632 39.3548L58.3385 39.4083H64.9093C65.5386 39.393 66.1482 39.1864 66.6572 38.8162C67.2248 38.4392 67.6895 37.9268 68.0092 37.3251L68.4908 36.3905Z" fill="#DFAD2C"/>
<path fill-rule="evenodd" clip-rule="evenodd" d="M86.0416 21.2905C84.7501 20.7348 83.3595 20.446 81.9535 20.4415H81.925C80.5189 20.4452 79.1282 20.734 77.837 21.2905C76.665 21.7654 75.6143 22.4968 74.762 23.4308C73.966 24.3443 73.3445 25.3963 72.9285 26.5343C72.0628 28.911 72.0628 31.5168 72.9285 33.8935C73.3533 35.0273 73.9739 36.0778 74.762 36.997C75.6186 37.9333 76.6675 38.6732 77.837 39.1659C79.1316 39.7051 80.5227 39.9745 81.925 39.9578H81.9535C83.3558 39.9737 84.7467 39.7042 86.0416 39.1659C87.2045 38.6762 88.2448 37.9356 89.088 36.997C89.8898 36.0832 90.5195 35.0318 90.9465 33.8935C91.8122 31.5168 91.8122 28.911 90.9465 26.5343C90.5286 25.3917 89.898 24.3387 89.088 23.4308C88.2492 22.4942 87.2071 21.7621 86.0416 21.2905ZM89.6516 30.1979C89.6516 32.664 89.0309 34.7508 87.7895 36.4584V36.4726C87.1517 37.4333 86.2802 38.2162 85.2569 38.7479C84.2336 39.2795 83.092 39.5424 81.9393 39.5119H81.9107C81.2719 39.514 80.6358 39.4288 80.0201 39.2586H79.963C78.9341 39.0324 77.9581 38.611 77.0878 38.0172C76.2517 37.4252 75.5271 36.6896 74.9475 35.8448C74.8548 35.695 74.8833 35.5844 75.0331 35.5095L75.2008 35.4524C75.2301 35.4412 75.2563 35.4233 75.2774 35.4001C75.2985 35.3769 75.3138 35.3491 75.3221 35.3189C75.3305 35.2887 75.3316 35.2569 75.3254 35.2262C75.3191 35.1955 75.3058 35.1667 75.2864 35.1421C74.5602 33.5987 74.1942 31.9105 74.2162 30.205C74.2162 27.7603 74.8357 25.6746 76.0747 23.9481C76.7162 22.995 77.5875 22.2189 78.6081 21.6915C79.6288 21.164 80.7658 20.9022 81.9143 20.9302H81.9428C82.5787 20.9276 83.2124 21.0031 83.8299 21.1549C83.8426 21.1526 83.8558 21.1534 83.8681 21.1571C83.8805 21.1608 83.8919 21.1674 83.9013 21.1763C85.9585 21.6067 87.7625 22.8325 88.9203 24.5866C89.0131 24.7186 88.9881 24.8221 88.8347 24.897L88.6671 24.9826C88.5363 25.0397 88.5077 25.1431 88.5815 25.2929C89.3107 26.8238 89.6769 28.5023 89.6516 30.1979Z" fill="#DFAD2C"/>
<path d="M113.042 20.8231C113.099 21.0737 113.127 21.3297 113.128 21.5865C113.185 22.0752 113.231 22.5996 113.27 23.1632C113.279 23.456 113.307 23.7479 113.352 24.0372H113.128L112.507 22.8814C112.239 22.3491 111.829 21.9011 111.323 21.5865C110.849 21.2633 110.291 21.086 109.717 21.0764H104.556C104.633 21.0825 104.709 21.1018 104.78 21.1335C104.946 21.1852 105.093 21.283 105.205 21.4153C105.379 21.5986 105.48 21.8401 105.487 22.0931V37.9672C105.476 38.3548 105.602 38.7337 105.843 39.0374C105.959 39.1749 106.101 39.2881 106.261 39.3701C106.421 39.4522 106.595 39.5016 106.774 39.5154L106.999 39.5439V39.8258H102.215V39.5439L102.44 39.5154C102.615 39.4989 102.784 39.4482 102.939 39.3662C103.094 39.2842 103.231 39.1724 103.343 39.0374C103.59 38.7372 103.717 38.3558 103.699 37.9672V21.0764H99.383C98.8096 21.086 98.2515 21.2633 97.7778 21.5865C97.2813 21.9128 96.8742 22.3579 96.5935 22.8814L96.0013 24.0372L95.7766 24.0657C95.8122 23.709 95.8586 23.1347 95.9157 22.3463C95.9665 21.6445 96.023 21.1575 96.0498 20.9257L96.0584 20.8517H96.0298L96.0584 20.6269H113.003L113.042 20.8231Z" fill="#DFAD2C"/>
<path fill-rule="evenodd" clip-rule="evenodd" d="M130.625 21.2905C129.333 20.7348 127.943 20.446 126.537 20.4415H126.508C125.102 20.4452 123.711 20.734 122.42 21.2905C121.249 21.7664 120.198 22.4976 119.345 23.4308C118.549 24.3443 117.928 25.3963 117.512 26.5343C116.646 28.911 116.646 31.5168 117.512 33.8935C117.937 35.0273 118.557 36.0778 119.345 36.997C120.202 37.9325 121.251 38.6723 122.42 39.1659C123.715 39.7051 125.106 39.9745 126.508 39.9578H126.537C127.939 39.9737 129.33 39.7042 130.625 39.1659C131.788 38.6762 132.828 37.9356 133.671 36.997C134.473 36.0832 135.103 35.0318 135.53 33.8935C136.395 31.5168 136.395 28.911 135.53 26.5343C135.112 25.3917 134.481 24.3387 133.671 23.4308C132.832 22.4942 131.79 21.7621 130.625 21.2905ZM134.235 30.1979C134.235 32.664 133.614 34.7508 132.373 36.4584V36.4726C131.736 37.4323 130.865 38.2145 129.843 38.7461C128.821 39.2777 127.681 39.5412 126.53 39.5119H126.501C125.862 39.514 125.226 39.4288 124.61 39.2586H124.553C123.524 39.0324 122.548 38.611 121.678 38.0172C120.842 37.4252 120.117 36.6896 119.538 35.8448C119.445 35.695 119.474 35.5844 119.623 35.5095L119.791 35.4524C119.82 35.4412 119.847 35.4233 119.868 35.4001C119.889 35.3769 119.904 35.3491 119.912 35.3189C119.921 35.2887 119.922 35.2569 119.916 35.2262C119.91 35.1955 119.896 35.1667 119.877 35.1421C119.151 33.5987 118.785 31.9105 118.807 30.205C118.807 27.7603 119.427 25.6746 120.669 23.9481C121.309 22.9948 122.18 22.2185 123.2 21.691C124.22 21.1635 125.357 20.9018 126.505 20.9302H126.533C127.169 20.9276 127.803 21.0031 128.42 21.1549C128.422 21.1547 128.424 21.1546 128.426 21.1546C128.427 21.1545 128.429 21.1545 128.43 21.1545C128.434 21.1546 128.437 21.1549 128.44 21.1553C128.445 21.156 128.45 21.1572 128.455 21.1587C128.466 21.1624 128.476 21.1684 128.484 21.1763C130.542 21.6067 132.346 22.8325 133.504 24.5866C133.6 24.7186 133.571 24.8221 133.422 24.897L133.25 24.9826C133.117 25.0397 133.089 25.1431 133.165 25.2929C133.894 26.8238 134.26 28.5023 134.235 30.1979Z" fill="#DFAD2C"/>
<path d="M161.913 39.4904L162.138 39.5189V39.8007H157.4V39.4904L157.486 39.5189L157.711 39.4904C157.912 39.4735 158.106 39.4061 158.274 39.2942C158.463 39.1691 158.622 39.0049 158.742 38.8126C158.854 38.6044 158.921 38.3745 158.938 38.1384L158.346 21.9788L150.958 39.9434H150.537C149.586 37.7817 148.242 34.7174 146.506 30.7507C144.77 26.7839 143.614 24.1239 143.039 22.7708L142.475 37.6033C142.46 38.0893 142.631 38.5628 142.953 38.9268C143.287 39.2727 143.743 39.4749 144.223 39.4904L144.615 39.5189V39.8007H140.37V39.5189L140.595 39.4904C140.766 39.4756 140.932 39.4255 141.082 39.3432C141.233 39.2609 141.365 39.1482 141.469 39.0124C141.714 38.706 141.862 38.3333 141.894 37.9422L142.457 22.2642C142.448 21.931 142.321 21.6116 142.101 21.3617C141.998 21.2364 141.871 21.1338 141.726 21.0607C141.582 20.9876 141.424 20.9455 141.262 20.9372L141.034 20.9087V20.5983H143.913L151.3 37.828L151.329 37.8566L158.235 20.5983H161.31V20.9087L161.114 20.9372C160.941 20.9443 160.773 20.9912 160.621 21.0741C160.469 21.157 160.339 21.2737 160.24 21.4152C160.005 21.7199 159.894 22.1023 159.93 22.4854L160.604 38.0778C160.653 38.4366 160.811 38.7716 161.057 39.0373C161.276 39.2892 161.581 39.4506 161.913 39.4904Z" fill="#DFAD2C"/>
<path d="M202.815 20.8231C202.871 21.0737 202.9 21.3297 202.9 21.5865C202.958 22.0752 203.004 22.5996 203.043 23.1632C203.052 23.456 203.079 23.7479 203.125 24.0372H202.9L202.28 22.8814C202.012 22.3491 201.602 21.9011 201.095 21.5865C200.622 21.2633 200.064 21.086 199.49 21.0764H194.328C194.406 21.0825 194.482 21.1018 194.553 21.1335C194.719 21.1852 194.866 21.283 194.978 21.4153C195.152 21.5986 195.253 21.8401 195.259 22.0931V37.9672C195.25 38.3546 195.376 38.733 195.616 39.0374C195.732 39.1749 195.874 39.2881 196.034 39.3701C196.193 39.4522 196.368 39.5016 196.547 39.5154L196.772 39.5439V39.8258H191.988V39.5439L192.213 39.5154C192.388 39.4989 192.557 39.4482 192.712 39.3662C192.867 39.2842 193.004 39.1724 193.116 39.0374C193.363 38.7372 193.49 38.3558 193.472 37.9672V21.0764H189.156C188.583 21.086 188.024 21.2633 187.551 21.5865C187.054 21.9128 186.647 22.3579 186.366 22.8814L185.774 24.0372L185.549 24.0657C185.585 23.709 185.632 23.1347 185.689 22.3463C185.739 21.6449 185.796 21.1581 185.823 20.9261L185.831 20.8517H185.803L185.831 20.6269H202.779L202.815 20.8231Z" fill="#DFAD2C"/>
<path d="M208.095 39.1239C208.25 39.1853 208.416 39.2141 208.583 39.2087C208.745 39.2121 208.907 39.1822 209.057 39.1208C209.207 39.0595 209.343 38.968 209.457 38.8519C209.582 38.7434 209.682 38.6091 209.751 38.4583C209.819 38.3074 209.854 38.1436 209.853 37.978C209.857 37.8113 209.828 37.6454 209.767 37.4903C209.705 37.3352 209.613 37.1941 209.496 37.0755C209.317 36.9012 209.09 36.7833 208.844 36.7365C208.598 36.6896 208.344 36.7158 208.113 36.8118C207.882 36.9078 207.684 37.0694 207.544 37.2767C207.403 37.4839 207.327 37.7277 207.324 37.978C207.32 38.1403 207.35 38.3017 207.411 38.452C207.473 38.6024 207.564 38.7385 207.681 38.8519C207.799 38.97 207.94 39.0625 208.095 39.1239Z" fill="#DFAD2C"/>
<path fill-rule="evenodd" clip-rule="evenodd" d="M228.021 37.0112C228.074 37.0861 228.16 37.1896 228.274 37.3216C228.787 37.9443 229.333 38.5396 229.908 39.1052C230.188 39.3027 230.525 39.4018 230.868 39.387V39.7045H230.218C229.513 39.7465 228.81 39.5908 228.189 39.255C227.269 38.4667 226.42 37.5989 225.652 36.6616C222.473 32.9446 220.74 30.9172 220.455 30.5795H216.374C216.449 30.6009 216.534 30.6187 216.627 30.6366C216.785 30.7019 216.922 30.8092 217.023 30.9469C217.197 31.1308 217.297 31.3719 217.305 31.6247V37.9208C217.294 38.3085 217.42 38.6875 217.662 38.991C217.777 39.1282 217.918 39.241 218.077 39.3231C218.237 39.4052 218.411 39.4548 218.589 39.469L218.817 39.4976V39.7794H214.034V39.4976L214.259 39.469C214.434 39.4566 214.605 39.4076 214.76 39.3253C214.916 39.243 215.052 39.1291 215.161 38.991C215.407 38.6902 215.534 38.3093 215.518 37.9208V22.4605C215.534 22.0721 215.407 21.6913 215.161 21.3903C215.058 21.2464 214.922 21.1284 214.766 21.0455C214.609 20.9626 214.436 20.917 214.259 20.9123L214.034 20.8838V20.6305L221.76 20.5449C222.82 20.5306 223.869 20.7523 224.832 21.1941C225.697 21.5613 226.439 22.1677 226.972 22.942C227.495 23.6834 227.771 24.571 227.76 25.4783C227.764 26.0656 227.646 26.6472 227.414 27.1864C227.181 27.7256 226.839 28.2105 226.409 28.6104C225.431 29.5211 224.204 30.1198 222.884 30.3298C222.862 30.3316 222.842 30.3418 222.827 30.3583C222.761 30.3574 222.694 30.3671 222.631 30.3869C222.576 30.405 222.518 30.4146 222.46 30.4154L221.475 30.501C222.188 30.501 222.816 30.8863 223.419 31.5997V31.6283H223.448C224.447 32.8292 225.971 34.6235 228.021 37.0112ZM221.222 30.13C222.092 30.1535 222.952 29.9494 223.719 29.5379C224.401 29.1574 224.959 28.5891 225.328 27.9005C225.696 27.1559 225.879 26.3337 225.863 25.5033C225.908 24.3091 225.482 23.1449 224.678 22.2607C224.311 21.849 223.859 21.5224 223.352 21.3037C222.846 21.085 222.298 20.9794 221.746 20.9943H216.36C216.39 20.997 216.419 21.0054 216.445 21.0193C216.622 21.052 216.787 21.1308 216.923 21.2476C217.026 21.3159 217.104 21.4144 217.148 21.5294C217.228 21.6774 217.276 21.84 217.291 22.0074V30.1015L221.222 30.13Z" fill="#DFAD2C"/>
<path d="M252.314 20.5985H248.279L248.258 20.9089L248.511 20.9374C248.723 20.9391 248.932 20.9881 249.123 21.0806C249.313 21.1732 249.481 21.307 249.613 21.4725C249.917 21.8021 250.078 22.2377 250.063 22.6853V34.3859C250.082 35.008 249.977 35.6277 249.752 36.2081C249.527 36.7885 249.187 37.3176 248.754 37.764C247.886 38.6297 246.588 39.1279 244.862 39.2587C244.562 39.2971 244.261 39.3162 243.959 39.3158C242.192 39.3158 240.82 38.8829 239.843 38.0173C239.843 38.0154 239.843 38.0134 239.843 38.0115C239.843 38.0095 239.842 38.0076 239.842 38.0057C239.841 38.0035 239.84 38.0014 239.839 37.9995C239.838 37.9988 239.838 37.9981 239.837 37.9974C239.837 37.9968 239.836 37.9963 239.836 37.9958C239.834 37.9939 239.832 37.9923 239.829 37.9911L239.826 37.9897C239.822 37.9885 239.818 37.9882 239.814 37.9888C238.875 37.1255 238.377 35.9138 238.319 34.3538V34.3324C238.291 34.104 238.291 33.89 238.291 33.6831V22.457C238.309 22.0684 238.182 21.6871 237.934 21.3869C237.828 21.2523 237.695 21.1409 237.544 21.0593C237.393 20.9778 237.227 20.9278 237.057 20.9124L236.832 20.8839H239.821V20.5735H235.055V20.8839L235.28 20.9124C235.457 20.9171 235.631 20.9627 235.788 21.0456C235.944 21.1285 236.079 21.2466 236.183 21.3904C236.43 21.6906 236.557 22.072 236.539 22.4606V33.6403C236.529 34.5098 236.676 35.3741 236.975 36.1909C237.25 36.9336 237.684 37.6078 238.245 38.1671C238.883 38.7577 239.645 39.1998 240.474 39.462C241.514 39.7819 242.597 39.9348 243.685 39.9151C243.812 39.9151 243.944 39.9084 244.081 39.9015C244.226 39.8941 244.376 39.8865 244.53 39.8865C245.117 39.8539 245.702 39.7788 246.278 39.6618C246.783 39.5434 247.275 39.3725 247.744 39.1517C249.606 38.2504 250.537 36.7188 250.537 34.5571V22.6746C250.524 22.4027 250.576 22.1315 250.688 21.8834C250.8 21.6353 250.97 21.4175 251.183 21.2478C251.415 21.0569 251.703 20.9479 252.003 20.9374L252.228 20.9089L252.314 20.5985Z" fill="#DFAD2C"/>
<path d="M267 59.9277H0V58.9277H267V59.9277Z" fill="#DFAD2C"/>
</svg>
